<svg width="16" height="16" viewBox="0 0 16 16" fill="none" xmlns="http://www.w3.org/2000/svg">
<path d="M15.25 8C15.25 12.0041 12.0041 15.25 8 15.25C3.99594 15.25 0.75 12.0041 0.75 8C0.75 3.99594 3.99594 0.75 8 0.75C12.0041 0.75 15.25 3.99594 15.25 8Z" stroke="#7047EB" stroke-width="1.5" stroke-linecap="round" stroke-linejoin="round"/>
<path d="M12.25 8C12.25 10.3472 10.3472 12.25 8 12.25C5.65279 12.25 3.75 10.3472 3.75 8C3.75 5.65279 5.65279 3.75 8 3.75C10.3472 3.75 12.25 5.65279 12.25 8Z" stroke="#7047EB" stroke-width="1.5" stroke-linecap="round" stroke-linejoin="round"/>
<path d="M9.25 8C9.25 8.69036 8.69036 9.25 8 9.25C7.30964 9.25 6.75 8.69036 6.75 8C6.75 7.30964 7.30964 6.75 8 6.75C8.69036 6.75 9.25 7.30964 9.25 8Z" stroke="#7047EB" stroke-width="1.5" stroke-linecap="round" stroke-linejoin="round"/>
</svg>
