<svg width="16" height="16" viewBox="0 0 16 16" fill="none" xmlns="http://www.w3.org/2000/svg">
<path d="M15.2543 8.00428C15.2538 12.0083 12.0074 15.2538 8.00332 15.2533C3.99925 15.2528 0.753755 12.0064 0.754298 8.00232C0.75484 3.99825 4.00121 0.752759 8.00528 0.753301C12.0093 0.753844 15.2548 4.00022 15.2543 8.00428Z" stroke="#3F3F50" stroke-width="1.5" stroke-linecap="round" stroke-linejoin="round"/>
<path d="M12.2543 8.00388C12.254 10.3511 10.3509 12.2536 8.00372 12.2533C5.65651 12.253 3.75398 10.3499 3.7543 8.00273C3.75462 5.65552 5.65766 3.75298 8.00487 3.7533C10.3521 3.75362 12.2546 5.65667 12.2543 8.00388Z" stroke="#3F3F50" stroke-width="1.5" stroke-linecap="round" stroke-linejoin="round"/>
<path d="M9.2543 8.00347C9.2542 8.69383 8.69448 9.25339 8.00413 9.2533C7.31377 9.25321 6.7542 8.69349 6.7543 8.00313C6.75439 7.31278 7.31411 6.75321 8.00447 6.7533C8.69482 6.75339 9.25439 7.31311 9.2543 8.00347Z" stroke="#3F3F50" stroke-width="1.5" stroke-linecap="round" stroke-linejoin="round"/>
</svg>
