<svg width="21" height="21" viewBox="0 0 21 21" fill="none" xmlns="http://www.w3.org/2000/svg">
<path d="M10.0787 0.131104C4.56467 0.131104 0.0786743 4.6181 0.0786743 10.1311C0.0786743 15.6461 4.56467 20.1311 10.0787 20.1311C15.5927 20.1311 20.0787 15.6461 20.0787 10.1311C20.0787 4.6181 15.5927 0.131104 10.0787 0.131104ZM10.0787 16.3811C9.38867 16.3811 8.82867 15.8221 8.82867 15.1311C8.82867 14.4411 9.38867 13.8811 10.0787 13.8811C10.7687 13.8811 11.3287 14.4411 11.3287 15.1311C11.3287 15.8221 10.7687 16.3811 10.0787 16.3811ZM11.0787 12.0061V13.1311H9.07867V10.1311H10.0787C11.1827 10.1311 12.0787 9.2341 12.0787 8.1311C12.0787 7.0271 11.1827 6.1311 10.0787 6.1311C8.97467 6.1311 8.07867 7.0271 8.07867 8.1311H6.07867C6.07867 5.9261 7.87367 4.1311 10.0787 4.1311C12.2837 4.1311 14.0787 5.9261 14.0787 8.1311C14.0787 9.9921 12.8017 11.5601 11.0787 12.0061Z" fill="#3F3F50"/>
</svg>
