<svg width="10" height="18" viewBox="0 0 10 18" fill="none" xmlns="http://www.w3.org/2000/svg">
<path d="M8.27273 4.09091V13.5C8.27273 15.3082 6.80818 16.7727 5 16.7727C3.19182 16.7727 1.72727 15.3082 1.72727 13.5V3.27273C1.72727 2.14364 2.64364 1.22727 3.77273 1.22727C4.90182 1.22727 5.81818 2.14364 5.81818 3.27273V11.8636C5.81818 12.0806 5.73198 12.2887 5.57854 12.4422C5.4251 12.5956 5.217 12.6818 5 12.6818C4.783 12.6818 4.5749 12.5956 4.42146 12.4422C4.26802 12.2887 4.18182 12.0806 4.18182 11.8636V4.09091H2.95455V11.8636C2.95455 12.9927 3.87091 13.9091 5 13.9091C6.12909 13.9091 7.04545 12.9927 7.04545 11.8636V3.27273C7.04545 1.46455 5.58091 0 3.77273 0C1.96455 0 0.5 1.46455 0.5 3.27273V13.5C0.5 15.9873 2.51682 18 5 18C7.48318 18 9.5 15.9873 9.5 13.5V4.09091H8.27273Z" fill="#8A8AA3"/>
</svg>
