<svg width="14" height="14" viewBox="0 0 14 14" fill="none" xmlns="http://www.w3.org/2000/svg">
<path d="M13.55 12.6597L9.95465 9.06442C10.6807 8.13375 11.0787 6.99708 11.0787 5.79775C11.0787 4.37308 10.5233 3.03375 9.51599 2.02708C8.50932 1.01908 7.16999 0.464417 5.74532 0.464417C4.32065 0.464417 2.98132 1.01908 1.97465 2.02708C0.967321 3.03375 0.411987 4.37308 0.411987 5.79775C0.411987 7.22242 0.967321 8.56175 1.97465 9.56842C2.98132 10.5764 4.32065 11.1311 5.74532 11.1311C6.94465 11.1311 8.08132 10.7337 9.01199 10.0071L12.6073 13.6017L13.55 12.6597ZM5.74532 9.79775C4.67665 9.79775 3.67265 9.38175 2.91732 8.62642C2.16132 7.87108 1.74532 6.86642 1.74532 5.79775C1.74532 4.72975 2.16132 3.72508 2.91732 2.96975C3.67265 2.21375 4.67665 1.79775 5.74532 1.79775C6.81399 1.79775 7.81799 2.21375 8.57332 2.96975C9.32932 3.72508 9.74532 4.72975 9.74532 5.79775C9.74532 6.86642 9.32932 7.87108 8.57332 8.62642C7.81799 9.38175 6.81399 9.79775 5.74532 9.79775Z" fill="#3F3F50"/>
</svg>
