<svg width="16" height="16" viewBox="0 0 16 16" fill="none" xmlns="http://www.w3.org/2000/svg">
<path d="M12.5 11.25C13.85 11.25 15.25 8.72894 15.25 6C15.25 3.27106 13.85 0.75 12.5 0.75M12.5 11.25C11.15 11.25 9.75 8.72894 9.75 6C9.75 3.27106 11.15 0.75 12.5 0.75M12.5 11.25C12.5 11.25 4 9.5 3 9.25C2 9 0.75 7.68934 0.75 6C0.75 4.31066 2 3 3 2.75C4 2.5 12.5 0.75 12.5 0.75M2.75 9.5V13.25C2.75 14.3546 3.64543 15.25 4.75 15.25H5.25C6.35457 15.25 7.25 14.3546 7.25 13.25V10.5" stroke="#3F3F50" stroke-width="1.5"/>
</svg>
