<svg width="16" height="16" viewBox="0 0 16 16" fill="none" xmlns="http://www.w3.org/2000/svg">
<path d="M0.75 7.25L6.25 1.75M7.25 4.25V0.75H3.75M2.25 15.2502H1.75C1.19772 15.2502 0.75 14.8025 0.75 14.2502V11.75C0.75 11.1977 1.19772 10.75 1.75 10.75H2.25C2.80229 10.75 3.25 11.1977 3.25 11.75V14.2502C3.25 14.8025 2.80229 15.2502 2.25 15.2502ZM8.25 15.2502H7.75C7.19772 15.2502 6.75 14.8025 6.75 14.2502V8.75C6.75 8.19772 7.19772 7.75 7.75 7.75H8.25C8.80229 7.75 9.25 8.19772 9.25 8.75V14.2502C9.25 14.8025 8.80229 15.2502 8.25 15.2502ZM14.25 15.2502H13.75C13.1977 15.2502 12.75 14.8025 12.75 14.2502V1.75C12.75 1.19772 13.1977 0.75 13.75 0.75H14.25C14.8023 0.75 15.25 1.19772 15.25 1.75V14.2502C15.25 14.8025 14.8023 15.2502 14.25 15.2502Z" stroke="#3F3F50" stroke-width="1.5" stroke-linecap="round" stroke-linejoin="round"/>
</svg>
