<svg width="14" height="14" viewBox="0 0 14 14" fill="none" xmlns="http://www.w3.org/2000/svg">
<g clip-path="url(#clip0_1_12411)">
<path d="M11.6667 14H2.33333C1.05 14 0 12.95 0 11.6667V2.33333C0 1.05 1.05 0 2.33333 0H11.6667C12.95 0 14 1.05 14 2.33333V11.6667C14 12.95 12.95 14 11.6667 14ZM2.33333 1.16667C1.69167 1.16667 1.16667 1.69167 1.16667 2.33333V11.6667C1.16667 12.3083 1.69167 12.8333 2.33333 12.8333H11.6667C12.3083 12.8333 12.8333 12.3083 12.8333 11.6667V2.33333C12.8333 1.69167 12.3083 1.16667 11.6667 1.16667H2.33333Z" fill="#8A8AA3"/>
<path d="M9.91667 4.66667H4.08333C3.73333 4.66667 3.5 4.43333 3.5 4.08333C3.5 3.73333 3.73333 3.5 4.08333 3.5H9.91667C10.2667 3.5 10.5 3.73333 10.5 4.08333C10.5 4.43333 10.2667 4.66667 9.91667 4.66667Z" fill="#8A8AA3"/>
<path d="M4.08333 5.25C3.73333 5.25 3.5 5.01667 3.5 4.66667V4.08333C3.5 3.73333 3.73333 3.5 4.08333 3.5C4.43333 3.5 4.66667 3.73333 4.66667 4.08333V4.66667C4.66667 5.01667 4.43333 5.25 4.08333 5.25ZM9.91667 5.25C9.56667 5.25 9.33333 5.01667 9.33333 4.66667V4.08333C9.33333 3.73333 9.56667 3.5 9.91667 3.5C10.2667 3.5 10.5 3.73333 10.5 4.08333V4.66667C10.5 5.01667 10.2667 5.25 9.91667 5.25ZM7 10.5C6.65 10.5 6.41667 10.2667 6.41667 9.91667V4.08333C6.41667 3.73333 6.65 3.5 7 3.5C7.35 3.5 7.58333 3.73333 7.58333 4.08333V9.91667C7.58333 10.2667 7.35 10.5 7 10.5Z" fill="#8A8AA3"/>
<path d="M7.58331 10.5H6.41665C6.06665 10.5 5.83331 10.2667 5.83331 9.91668C5.83331 9.56668 6.06665 9.33334 6.41665 9.33334H7.58331C7.93331 9.33334 8.16665 9.56668 8.16665 9.91668C8.16665 10.2667 7.93331 10.5 7.58331 10.5Z" fill="#8A8AA3"/>
</g>
<defs>
<clipPath id="clip0_1_12411">
<rect width="14" height="14" fill="white"/>
</clipPath>
</defs>
</svg>
