<svg width="16" height="16" viewBox="0 0 16 16" fill="none" xmlns="http://www.w3.org/2000/svg">
<path d="M11.75 10C13.8288 10 14.6802 12.1479 15.0239 13.696C15.2095 14.532 14.5333 15.25 13.6769 15.25H12.75M10.75 6.25C12.2688 6.25 13.25 5.01878 13.25 3.5C13.25 1.98122 12.2688 0.75 10.75 0.75M9.21834 15.25H1.78171C1.2172 15.25 0.773022 14.7817 0.885508 14.2285C1.19607 12.7012 2.21034 10 5.50002 10C8.78971 10 9.80398 12.7012 10.1145 14.2285C10.227 14.7817 9.78284 15.25 9.21834 15.25ZM8.25002 3.5C8.25002 5.01878 7.0188 6.25 5.50002 6.25C3.98124 6.25 2.75002 5.01878 2.75002 3.5C2.75002 1.98122 3.98124 0.75 5.50002 0.75C7.0188 0.75 8.25002 1.98122 8.25002 3.5Z" stroke="#3F3F50" stroke-width="1.5" stroke-linecap="round" stroke-linejoin="round"/>
</svg>
