<svg width="28" height="28" viewBox="0 0 28 28" fill="none" xmlns="http://www.w3.org/2000/svg">
<path d="M26.0833 14C26.0833 20.6735 20.6734 26.0834 14 26.0834C7.32655 26.0834 1.91666 20.6735 1.91666 14C1.91666 7.32658 7.32655 1.91669 14 1.91669C20.6734 1.91669 26.0833 7.32658 26.0833 14Z" stroke="#8A8AA3" stroke-width="2" stroke-linecap="round" stroke-linejoin="round"/>
<path d="M21.0833 14C21.0833 17.912 17.912 21.0834 14 21.0834C10.088 21.0834 6.91666 17.912 6.91666 14C6.91666 10.088 10.088 6.91669 14 6.91669C17.912 6.91669 21.0833 10.088 21.0833 14Z" stroke="#8A8AA3" stroke-width="2" stroke-linecap="round" stroke-linejoin="round"/>
<path d="M16.0833 14C16.0833 15.1506 15.1506 16.0834 14 16.0834C12.8494 16.0834 11.9167 15.1506 11.9167 14C11.9167 12.8494 12.8494 11.9167 14 11.9167C15.1506 11.9167 16.0833 12.8494 16.0833 14Z" stroke="#8A8AA3" stroke-width="2" stroke-linecap="round" stroke-linejoin="round"/>
</svg>
