<svg width="25" height="25" viewBox="0 0 25 25" fill="none" xmlns="http://www.w3.org/2000/svg">
<g clip-path="url(#clip0_114_95)">
<path d="M12.0787 2.1311C6.56467 2.1311 2.07867 6.6181 2.07867 12.1311C2.07867 17.6461 6.56467 22.1311 12.0787 22.1311C17.5927 22.1311 22.0787 17.6461 22.0787 12.1311C22.0787 6.6181 17.5927 2.1311 12.0787 2.1311ZM12.0787 18.3811C11.3887 18.3811 10.8287 17.8221 10.8287 17.1311C10.8287 16.4411 11.3887 15.8811 12.0787 15.8811C12.7687 15.8811 13.3287 16.4411 13.3287 17.1311C13.3287 17.8221 12.7687 18.3811 12.0787 18.3811ZM13.0787 14.0061V15.1311H11.0787V12.1311H12.0787C13.1827 12.1311 14.0787 11.2341 14.0787 10.1311C14.0787 9.0271 13.1827 8.1311 12.0787 8.1311C10.9747 8.1311 10.0787 9.0271 10.0787 10.1311H8.07867C8.07867 7.9261 9.87367 6.1311 12.0787 6.1311C14.2837 6.1311 16.0787 7.9261 16.0787 10.1311C16.0787 11.9921 14.8017 13.5601 13.0787 14.0061Z" fill="#3F3F50"/>
</g>
<defs>
<clipPath id="clip0_114_95">
<rect width="24" height="24" fill="white" transform="translate(0.0786743 0.131104)"/>
</clipPath>
</defs>
</svg>
