<svg width="103" height="38" viewBox="0 0 103 38" fill="none" xmlns="http://www.w3.org/2000/svg">
<path d="M6.80055 13.4972C7.86059 13.4972 8.80647 13.7174 9.63819 14.1577C10.4862 14.598 11.1467 15.2504 11.6196 16.1147C12.0926 16.979 12.3291 18.0228 12.3291 19.2459V27.1962H9.5648V19.6617C9.5648 18.4549 9.2631 17.5335 8.65969 16.8975C8.05629 16.2452 7.23272 15.919 6.18899 15.919C5.14526 15.919 4.31354 16.2452 3.69382 16.8975C3.09042 17.5335 2.78871 18.4549 2.78871 19.6617V27.1962H0V13.7174H2.78871V15.2585C3.24535 14.704 3.82429 14.2719 4.52555 13.962C5.24311 13.6521 6.00144 13.4972 6.80055 13.4972Z" fill="#FBFBFB"/>
<path d="M21.6594 20.3712L26.0137 27.1962H22.858L19.947 22.6217L17.2072 27.1962H14.2962L18.6505 20.5669L14.2962 13.7174H17.4518L20.3629 18.2918L23.1026 13.7174H26.0137L21.6594 20.3712Z" fill="#FBFBFB"/>
<path d="M31.347 15.9924V23.4534C31.347 23.959 31.4612 24.3259 31.6895 24.5542C31.9341 24.7662 32.3419 24.8722 32.9126 24.8722H34.625V27.1962H32.4234C31.1677 27.1962 30.2055 26.9026 29.5368 26.3155C28.8682 25.7284 28.5339 24.7744 28.5339 23.4534V15.9924H26.9438V13.7174H28.5339V10.366H31.347V13.7174H34.625V15.9924H31.347Z" fill="#FBFBFB"/>
<path d="M55.9049 18.215C55.6074 18.7227 55.1078 19.0409 54.5685 19.1301C54.5615 19.1301 54.5536 19.1301 54.5466 19.1321C54.5177 19.1371 54.4889 19.1391 54.457 19.144C54.4113 19.149 54.3655 19.151 54.3217 19.151C53.9396 18.222 53.2589 17.408 52.3235 16.8647C51.9463 16.6456 51.5533 16.484 51.1492 16.3789C51.1443 16.3769 51.1423 16.3769 51.1393 16.3769C50.992 16.3382 50.8447 16.3075 50.6945 16.2827C50.6875 16.2827 50.6825 16.2807 50.6756 16.2807C50.591 16.2659 50.5084 16.254 50.4248 16.247C50.4099 16.2421 50.3929 16.2421 50.376 16.2421C50.3014 16.2351 50.2258 16.2272 50.1511 16.2252C49.2814 16.1727 48.4097 16.367 47.6434 16.7745C47.6026 16.7963 47.5588 16.8201 47.518 16.8439C46.8175 17.2414 46.2084 17.8234 45.7766 18.565C45.685 18.7187 45.6054 18.8783 45.5327 19.037H45.5009C45.486 19.037 45.472 19.037 45.4571 19.035C45.4332 19.033 45.4064 19.03 45.3795 19.0251C45.3506 19.0201 45.3188 19.0151 45.2879 19.0102C45.2491 19.0032 45.2083 18.9913 45.1695 18.9814C45.1427 18.9745 45.1188 18.9666 45.0919 18.9596C45.0053 18.9329 44.9207 18.9021 44.8362 18.8634C44.8342 18.8615 44.8292 18.8615 44.8262 18.8585C44.7774 18.8367 44.7297 18.8099 44.6839 18.7841C43.7783 18.2567 43.4708 17.0967 44.0003 16.1945C44.051 16.1082 44.1037 16.0309 44.1645 15.9565C44.1834 15.9327 44.2053 15.9079 44.2271 15.8841C44.249 15.8623 44.2679 15.8356 44.2928 15.8167C45.7616 14.2215 47.8295 13.3579 49.9402 13.3718H49.9421C50.1014 13.3738 50.2606 13.3787 50.4228 13.3936C50.5561 13.4006 50.6885 13.4125 50.8189 13.4293C51.8259 13.5473 52.826 13.8695 53.7585 14.4108C54.4948 14.8372 55.1327 15.3686 55.6641 15.9773C55.686 16.0041 55.7099 16.0299 55.7318 16.0567C56.2194 16.6485 56.3159 17.5081 55.9029 18.2131L55.9049 18.215Z" fill="url(#paint0_linear_1_4956)"/>
<g filter="url(#filter0_d_1_4956)">
<path d="M46.6891 21.8398C46.4164 22.3068 45.9716 22.6152 45.481 22.7282C45.4402 22.7381 45.3964 22.75 45.3526 22.755C45.3208 22.7599 45.2919 22.7619 45.2611 22.7669C45.2541 22.7688 45.2491 22.7688 45.2422 22.7688C44.7038 22.8581 44.2033 23.1783 43.9057 23.6859C43.4927 24.3889 43.5893 25.2485 44.0769 25.8404C42.6927 24.2124 42.0677 22.0728 42.3404 19.969C42.4658 18.9964 42.7852 18.0317 43.3136 17.1285C43.5355 16.7507 43.7823 16.4017 44.055 16.0795C44.0908 16.0339 44.1276 15.9933 44.1664 15.9496C44.1057 16.024 44.053 16.1013 44.0022 16.1876C43.4728 17.0898 43.7803 18.2508 44.6859 18.7773C44.7317 18.804 44.7804 18.8298 44.8282 18.8516C44.8302 18.8536 44.8352 18.8536 44.8381 18.8566C44.9227 18.8952 45.0073 18.926 45.0939 18.9527C45.1208 18.9597 45.1446 18.9676 45.1715 18.9746C45.2103 18.9845 45.2511 18.9964 45.2899 19.0033C45.3218 19.0083 45.3526 19.0132 45.3815 19.0182C45.3984 19.0202 45.4133 19.0231 45.4302 19.0281H45.4322C45.4561 19.0331 45.481 19.038 45.5049 19.045C45.5118 19.0469 45.5198 19.0499 45.5268 19.0519C45.691 19.0925 45.8532 19.158 46.0054 19.2472C46.911 19.7747 47.2185 20.9366 46.6891 21.8398Z" fill="#FBFBFB"/>
</g>
<path d="M55.8084 25.7095C55.7576 25.7958 55.7049 25.8761 55.6442 25.9475C55.6253 25.9742 55.6034 25.996 55.5815 26.0198C55.5596 26.0416 55.5407 26.0684 55.5158 26.0892C54.049 27.6825 51.9811 28.5441 49.8705 28.5302H49.8685C49.6267 28.5302 49.3829 28.5153 49.141 28.4895C49.0923 28.4846 49.0445 28.4796 48.9958 28.4727C48.9261 28.4677 48.8584 28.4578 48.7908 28.4459C48.7181 28.436 48.6455 28.4241 48.5738 28.4122C48.4843 28.3953 48.3947 28.3785 48.3061 28.3597C48.2285 28.3428 48.1519 28.324 48.0723 28.3041C47.3817 28.1376 46.7 27.8689 46.0522 27.4931C45.3158 27.0648 44.6779 26.5324 44.1465 25.9266C44.1246 25.8979 44.1007 25.8711 44.0788 25.8443C43.5912 25.2525 43.4947 24.3929 43.9077 23.6899C44.2052 23.1823 44.7048 22.8621 45.2441 22.7728C45.2511 22.7728 45.2561 22.7728 45.263 22.7709C45.2949 22.7659 45.3237 22.7639 45.3546 22.759C45.4004 22.754 45.4461 22.752 45.4899 22.752C45.8721 23.681 46.5527 24.495 47.4881 25.0383C47.8653 25.2574 48.2584 25.419 48.6624 25.5241C48.6674 25.5261 48.6694 25.5261 48.6723 25.5261C48.6942 25.531 48.7161 25.536 48.738 25.541C48.748 25.5429 48.7599 25.5459 48.7719 25.5479C48.7818 25.5499 48.7908 25.5499 48.8037 25.5548C48.8256 25.5598 48.8475 25.5648 48.8694 25.5697C48.952 25.5886 49.0336 25.6054 49.1182 25.6203C49.1251 25.6203 49.1301 25.6223 49.1371 25.6223C49.2217 25.6371 49.3042 25.649 49.3878 25.656C49.4028 25.6609 49.4197 25.6609 49.4366 25.6609C49.5112 25.6679 49.5869 25.6758 49.6615 25.6778C49.6854 25.6798 49.7122 25.6798 49.7361 25.6827C49.7988 25.6847 49.8615 25.6877 49.9242 25.6877C50.163 25.6877 50.3999 25.6708 50.6347 25.6352C50.6924 25.6282 50.7512 25.6183 50.8059 25.6064C50.994 25.5707 51.1801 25.5241 51.3642 25.4666C51.4557 25.4379 51.5483 25.4061 51.6398 25.3704C51.6667 25.3605 51.6925 25.3486 51.7194 25.3367C51.8737 25.2762 52.0239 25.2068 52.1692 25.1295C52.21 25.1077 52.2538 25.0839 52.2946 25.0601C52.9952 24.6625 53.6012 24.0825 54.0361 23.339C54.1276 23.1853 54.2072 23.0257 54.2799 22.867C54.3306 22.867 54.3794 22.872 54.4321 22.8789C54.461 22.8839 54.4928 22.8888 54.5237 22.8938C54.7287 22.9344 54.9347 23.0098 55.1277 23.1198C56.0333 23.6473 56.3408 24.8073 55.8114 25.7095H55.8084Z" fill="url(#paint1_linear_1_4956)"/>
<g filter="url(#filter1_d_1_4956)">
<path d="M57.4703 21.929C57.3449 22.9036 57.0255 23.8693 56.497 24.7715C56.2622 25.1691 56.0015 25.5349 55.7099 25.871L55.7079 25.873C55.689 25.8968 55.6671 25.9236 55.6452 25.9474C55.7059 25.875 55.7587 25.7957 55.8094 25.7094C56.3388 24.8072 56.0313 23.6462 55.1258 23.1198C54.9327 23.0087 54.7267 22.9344 54.5217 22.8937C54.4899 22.8888 54.459 22.8838 54.4302 22.8789C54.3794 22.8719 54.3307 22.86 54.2849 22.8451C54.1207 22.8045 53.9585 22.7391 53.8062 22.6498C52.9007 22.1224 52.5932 20.9624 53.1226 20.0602C53.3952 19.5912 53.8401 19.2829 54.3307 19.1698C54.3715 19.1599 54.4152 19.151 54.459 19.1431C54.4909 19.1381 54.5197 19.1361 54.5486 19.1312C54.5556 19.1292 54.5635 19.1292 54.5705 19.1292C55.1088 19.04 55.6094 18.7227 55.9069 18.2141C56.3199 17.5092 56.2234 16.6496 55.7358 16.0577C57.12 17.6846 57.7459 19.8242 57.4723 21.9281L57.4703 21.929Z" fill="#FBFBFB"/>
</g>
<path fill-rule="evenodd" clip-rule="evenodd" d="M49.5154 16.2304C49.7264 16.2143 49.9388 16.2124 50.1511 16.2252C50.2159 16.2269 50.2813 16.2331 50.3463 16.2393C50.3562 16.2402 50.3661 16.2411 50.376 16.2421H50.376C50.393 16.2421 50.4099 16.2421 50.4248 16.247C50.5084 16.254 50.591 16.2659 50.6756 16.2807C50.6791 16.2807 50.682 16.2812 50.685 16.2817C50.688 16.2822 50.691 16.2827 50.6945 16.2827C50.8448 16.3075 50.992 16.3382 51.1393 16.3769C51.1423 16.3769 51.1443 16.3769 51.1493 16.3789C51.5533 16.484 51.9464 16.6456 52.3235 16.8647C53.2589 17.408 53.9396 18.222 54.3217 19.151C54.3655 19.151 54.4113 19.149 54.4571 19.144C54.472 19.1417 54.4863 19.14 54.5002 19.1384C54.516 19.1366 54.5313 19.1348 54.5466 19.1321C54.5536 19.1301 54.5615 19.1301 54.5685 19.1301C55.1079 19.0409 55.6074 18.7227 55.905 18.215L55.903 18.2131C56.3159 17.5081 56.2194 16.6486 55.7318 16.0567C55.7209 16.0433 55.7094 16.0301 55.698 16.017C55.6865 16.0039 55.6751 15.9907 55.6641 15.9773C55.1327 15.3686 54.4949 14.8372 53.7585 14.4108C52.826 13.8695 51.8259 13.5473 50.8189 13.4293C50.6885 13.4125 50.5562 13.4006 50.4228 13.3936C50.2606 13.3787 50.1014 13.3738 49.9422 13.3718H49.9402C49.7983 13.3709 49.6567 13.3739 49.5154 13.3809V16.2304Z" fill="url(#paint2_linear_1_4956)"/>
<path d="M62.0335 15.7236C62.5065 15.0712 63.1506 14.5412 63.9661 14.1335C64.7978 13.7095 65.7192 13.4975 66.7303 13.4975C67.9208 13.4975 68.9972 13.7829 69.9593 14.3537C70.9215 14.9244 71.6799 15.7399 72.2344 16.7999C72.7888 17.8436 73.0661 19.0423 73.0661 20.3959C73.0661 21.7495 72.7888 22.9644 72.2344 24.0408C71.6799 25.1008 70.9134 25.9325 69.9349 26.5359C68.9727 27.123 67.9045 27.4166 66.7303 27.4166C65.6866 27.4166 64.757 27.2127 63.9416 26.805C63.1425 26.3973 62.5065 25.8755 62.0335 25.2394V27.1964H59.2448V9.09424H62.0335V15.7236ZM70.2284 20.3959C70.2284 19.4663 70.0327 18.6672 69.6413 17.9986C69.2662 17.3136 68.7607 16.7999 68.1247 16.4574C67.505 16.0986 66.8363 15.9192 66.1187 15.9192C65.4175 15.9192 64.7489 16.0986 64.1128 16.4574C63.4931 16.8162 62.9876 17.3381 62.5962 18.023C62.2211 18.708 62.0335 19.5152 62.0335 20.4448C62.0335 21.3744 62.2211 22.1898 62.5962 22.891C62.9876 23.576 63.4931 24.0978 64.1128 24.4566C64.7489 24.8154 65.4175 24.9948 66.1187 24.9948C66.8363 24.9948 67.505 24.8154 68.1247 24.4566C68.7607 24.0815 69.2662 23.5434 69.6413 22.8421C70.0327 22.1409 70.2284 21.3254 70.2284 20.3959Z" fill="#FBFBFB"/>
<path d="M38.614 11.9317C38.1085 11.9317 37.6845 11.7604 37.342 11.418C36.9995 11.0755 36.8283 10.6515 36.8283 10.1459C36.8283 9.64037 36.9995 9.21635 37.342 8.87388C37.6845 8.53141 38.1085 8.36017 38.614 8.36017C39.1033 8.36017 39.5192 8.53141 39.8616 8.87388C40.2041 9.21635 40.3753 9.64037 40.3753 10.1459C40.3753 10.6515 40.2041 11.0755 39.8616 11.418C39.5192 11.7604 39.1033 11.9317 38.614 11.9317ZM39.9839 29.8382C39.9839 31.1591 39.6496 32.1132 38.981 32.7003C38.3287 33.3037 37.3746 33.6054 36.1189 33.6054H34.6756V31.257H35.6296C36.2004 31.257 36.6 31.1428 36.8283 30.9145C37.0729 30.7025 37.1952 30.3437 37.1952 29.8382V13.7174H39.9839V29.8382Z" fill="#FBFBFB"/>
<path d="M76.0264 27.6712C75.5208 27.6712 75.0968 27.4999 74.7543 27.1575C74.4118 26.815 74.2406 26.391 74.2406 25.8854C74.2406 25.3799 74.4118 24.9558 74.7543 24.6134C75.0968 24.2709 75.5208 24.0997 76.0264 24.0997C76.5156 24.0997 76.9315 24.2709 77.2739 24.6134C77.6164 24.9558 77.7877 25.3799 77.7877 25.8854C77.7877 26.391 77.6164 26.815 77.2739 27.1575C76.9315 27.4999 76.5156 27.6712 76.0264 27.6712ZM79.8721 20.6994C79.8721 19.3458 80.1494 18.1471 80.7038 17.1034C81.2746 16.0597 82.0411 15.2524 83.0033 14.6816C83.9818 14.0945 85.0581 13.801 86.2323 13.801C87.2924 13.801 88.2138 14.013 88.9966 14.437C89.7957 14.8447 90.4317 15.3584 90.9047 15.9781V14.0212H93.7178V27.4999H90.9047V25.494C90.4317 26.13 89.7875 26.6601 88.9721 27.0841C88.1567 27.5081 87.2271 27.7201 86.1834 27.7201C85.0255 27.7201 83.9655 27.4266 83.0033 26.8395C82.0411 26.236 81.2746 25.4043 80.7038 24.3443C80.1494 23.2679 79.8721 22.053 79.8721 20.6994ZM90.9047 20.7483C90.9047 19.8187 90.709 19.0115 90.3176 18.3265C89.9425 17.6416 89.4451 17.1197 88.8254 16.7609C88.2056 16.4022 87.537 16.2228 86.8194 16.2228C86.1019 16.2228 85.4332 16.4022 84.8135 16.7609C84.1938 17.1034 83.6883 17.6171 83.2969 18.3021C82.9218 18.9707 82.7342 19.7698 82.7342 20.6994C82.7342 21.629 82.9218 22.4444 83.2969 23.1456C83.6883 23.8469 84.1938 24.3851 84.8135 24.7601C85.4495 25.1189 86.1182 25.2983 86.8194 25.2983C87.537 25.2983 88.2056 25.1189 88.8254 24.7601C89.4451 24.4014 89.9425 23.8795 90.3176 23.1946C90.709 22.4933 90.9047 21.6779 90.9047 20.7483ZM98.7995 12.2354C98.294 12.2354 97.87 12.0642 97.5275 11.7217C97.185 11.3792 97.0138 10.9552 97.0138 10.4496C97.0138 9.94408 97.185 9.52007 97.5275 9.1776C97.87 8.83512 98.294 8.66388 98.7995 8.66388C99.2888 8.66388 99.7046 8.83512 100.047 9.1776C100.39 9.52007 100.561 9.94408 100.561 10.4496C100.561 10.9552 100.39 11.3792 100.047 11.7217C99.7046 12.0642 99.2888 12.2354 98.7995 12.2354ZM100.169 14.0212V27.4999H97.3807V14.0212H100.169Z" fill="#FBFBFB"/>
<defs>
<filter id="filter0_d_1_4956" x="42.2778" y="15.1565" width="5.46375" height="10.6838" filterUnits="userSpaceOnUse" color-interpolation-filters="sRGB">
<feFlood flood-opacity="0" result="BackgroundImageFix"/>
<feColorMatrix in="SourceAlpha" type="matrix" values="0 0 0 0 0 0 0 0 0 0 0 0 0 0 0 0 0 0 127 0" result="hardAlpha"/>
<feOffset dx="0.39658" dy="-0.39658"/>
<feGaussianBlur stdDeviation="0.19829"/>
<feComposite in2="hardAlpha" operator="out"/>
<feColorMatrix type="matrix" values="0 0 0 0 0 0 0 0 0 0 0 0 0 0 0 0 0 0 0.25 0"/>
<feBlend mode="normal" in2="BackgroundImageFix" result="effect1_dropShadow_1_4956"/>
<feBlend mode="normal" in="SourceGraphic" in2="effect1_dropShadow_1_4956" result="shape"/>
</filter>
<filter id="filter1_d_1_4956" x="52.0701" y="16.0577" width="5.4651" height="10.6829" filterUnits="userSpaceOnUse" color-interpolation-filters="sRGB">
<feFlood flood-opacity="0" result="BackgroundImageFix"/>
<feColorMatrix in="SourceAlpha" type="matrix" values="0 0 0 0 0 0 0 0 0 0 0 0 0 0 0 0 0 0 127 0" result="hardAlpha"/>
<feOffset dx="-0.39658" dy="0.39658"/>
<feGaussianBlur stdDeviation="0.19829"/>
<feComposite in2="hardAlpha" operator="out"/>
<feColorMatrix type="matrix" values="0 0 0 0 0 0 0 0 0 0 0 0 0 0 0 0 0 0 0.25 0"/>
<feBlend mode="normal" in2="BackgroundImageFix" result="effect1_dropShadow_1_4956"/>
<feBlend mode="normal" in="SourceGraphic" in2="effect1_dropShadow_1_4956" result="shape"/>
</filter>
<linearGradient id="paint0_linear_1_4956" x1="43.7435" y1="16.2619" x2="56.1647" y2="16.2619" gradientUnits="userSpaceOnUse">
<stop stop-color="#57A4F2"/>
<stop offset="0.25" stop-color="#8246FD"/>
<stop offset="0.91" stop-color="#FF1FDC"/>
</linearGradient>
<linearGradient id="paint1_linear_1_4956" x1="43.646" y1="25.6411" x2="56.0681" y2="25.6411" gradientUnits="userSpaceOnUse">
<stop stop-color="#57A4F2"/>
<stop offset="0.25" stop-color="#8246FD"/>
<stop offset="0.91" stop-color="#FF1FDC"/>
</linearGradient>
<linearGradient id="paint2_linear_1_4956" x1="43.6932" y1="16.2619" x2="56.1647" y2="16.2619" gradientUnits="userSpaceOnUse">
<stop stop-color="#57A4F2"/>
<stop offset="0.25" stop-color="#8246FD"/>
<stop offset="0.91" stop-color="#FF1FDC"/>
</linearGradient>
</defs>
</svg>
