<svg width="24" height="24" viewBox="0 0 24 24" fill="none" xmlns="http://www.w3.org/2000/svg">
<path d="M4.75 11.25L10.25 5.75M11.25 8.25V4.75H7.75M6.25 19.2502H5.75C5.19772 19.2502 4.75 18.8025 4.75 18.2502V15.75C4.75 15.1977 5.19772 14.75 5.75 14.75H6.25C6.80229 14.75 7.25 15.1977 7.25 15.75V18.2502C7.25 18.8025 6.80229 19.2502 6.25 19.2502ZM12.25 19.2502H11.75C11.1977 19.2502 10.75 18.8025 10.75 18.2502V12.75C10.75 12.1977 11.1977 11.75 11.75 11.75H12.25C12.8023 11.75 13.25 12.1977 13.25 12.75V18.2502C13.25 18.8025 12.8023 19.2502 12.25 19.2502ZM18.25 19.2502H17.75C17.1977 19.2502 16.75 18.8025 16.75 18.2502V5.75C16.75 5.19772 17.1977 4.75 17.75 4.75H18.25C18.8023 4.75 19.25 5.19772 19.25 5.75V18.2502C19.25 18.8025 18.8023 19.2502 18.25 19.2502Z" stroke="#3F3F50" stroke-width="1.5" stroke-linecap="round" stroke-linejoin="round"/>
</svg>
