<svg width="24" height="24" viewBox="0 0 24 24" fill="none" xmlns="http://www.w3.org/2000/svg">
<path d="M15.75 14C17.8288 14 18.6802 16.1479 19.0239 17.696C19.2095 18.532 18.5333 19.25 17.6769 19.25H16.75M14.75 10.25C16.2688 10.25 17.25 9.01878 17.25 7.5C17.25 5.98122 16.2688 4.75 14.75 4.75M13.2183 19.25H5.78171C5.2172 19.25 4.77302 18.7817 4.88551 18.2285C5.19607 16.7012 6.21034 14 9.50002 14C12.7897 14 13.804 16.7012 14.1145 18.2285C14.227 18.7817 13.7828 19.25 13.2183 19.25ZM12.25 7.5C12.25 9.01878 11.0188 10.25 9.50002 10.25C7.98124 10.25 6.75002 9.01878 6.75002 7.5C6.75002 5.98122 7.98124 4.75 9.50002 4.75C11.0188 4.75 12.25 5.98122 12.25 7.5Z" stroke="#3F3F50" stroke-width="1.5" stroke-linecap="round" stroke-linejoin="round"/>
</svg>
